<?xml version="1.0" standalone="no"?>
<!DOCTYPE svg PUBLIC "-//W3C//DTD SVG 1.1//EN" "http://www.w3.org/Graphics/SVG/1.1/DTD/svg11.dtd" >
<svg xmlns="http://www.w3.org/2000/svg">
<metadata>Generated by IcoMoon</metadata>
<defs>
<font id="swatchicons" horiz-adv-x="512">
<font-face units-per-em="512" ascent="480" descent="-32" />
<missing-glyph horiz-adv-x="512" />
<glyph unicode="&#x20;" d="" horiz-adv-x="256" />
<glyph unicode="&#xe600;" d="M10.666 349.333h46.934l198.4-197.333 198.4 197.333h46.933l-245.333-245.333z" />
<glyph unicode="&#xe601;" d="M256.032 479.413c-141.248 0-255.755-114.496-255.755-255.755s114.496-255.755 255.755-255.755 255.755 114.496 255.755 255.755-114.507 255.755-255.755 255.755zM381.11 119.776l-74.038 47.904c-17.002-15.723-38.933-24.384-61.995-24.384-50.379 0-91.35 40.981-91.35 91.328 0 50.379 40.982 91.35 91.35 91.35 50.346 0 91.328-40.981 91.328-91.35 0-16.075-4.33-31.904-12.512-45.931l71.776-46.442-14.56-22.474zM245.088 299.178c-35.616 0-64.566-28.949-64.566-64.565 0-35.574 28.95-64.534 64.565-64.534 35.574 0 64.555 28.96 64.555 64.534-0.010 35.616-28.981 64.565-64.555 64.565zM282.827 227.733h-29.226v-29.248h-19.477v29.248h-29.227v19.477h29.226v29.227h19.477v-29.226h29.227v-19.477z" />
<glyph unicode="&#xe602;" d="M345.298 355.608v-34.944l-144.43-144.43 144.43-144.43v-34.166l-178.597 178.597z" />
<glyph unicode="&#xe603;" d="M501.334 80h-46.933l-198.4 198.4-198.4-198.4h-46.934l245.333 245.333z" />
<glyph unicode="&#xe604;" d="M151.946 11.84c0-24.212-19.628-43.84-43.84-43.84s-43.84 19.628-43.84 43.84c0 24.212 19.628 43.84 43.84 43.84s43.84-19.628 43.84-43.84zM362.646 11.84c0-24.212-19.628-43.84-43.84-43.84s-43.84 19.628-43.84 43.84c0 24.212 19.628 43.84 43.84 43.84s43.84-19.628 43.84-43.84zM494.954 425.046h-35.286l-13.834-32.469-16.576-38.966h-429.259v-32.469l81.525-191.584h252.491l-9.664-22.731h-243.050v-32.469h264.49l33.163 77.93h-0.075l4.16 9.738 98.112 230.55h30.421v32.469h-16.618zM116.49 162.016h-13.493l-27.627 64.95h41.109v-64.95zM116.49 259.435h-54.934l-26.272 61.696h81.206v-61.696zM208.224 162.016h-59.264v64.95h59.264v-64.95zM208.224 259.435h-59.264v61.696h59.264v-61.696zM299.957 162.016h-59.274v64.95h59.274v-64.95zM299.957 259.435h-59.274v61.696h59.274v-61.696zM347.744 162.016h-15.328v64.95h42.966l-27.637-64.95zM389.195 259.435h-56.779v61.696h83.029l-26.25-61.696z" />
<glyph unicode="&#xe605;" d="M301.792 267.499h-25.622v-87.435h25.622c25.226 0 42.912 19.67 42.912 43.723 0 24.032-17.685 43.712-42.912 43.712zM255.786 479.563c-141.291 0-255.786-114.507-255.786-255.786s114.496-255.776 255.786-255.776c141.258 0 255.776 114.496 255.776 255.776s-114.517 255.786-255.776 255.786zM186.731 151.253c-27.040 0-47.712 17.685-47.712 44.704h27.829c0-11.328 7.936-18.88 19.872-18.88 11.915 0 19.851 7.541 19.851 18.88 0 11.125-7.755 18.678-19.274 18.89h-12.523v25.824h11.936c9.12 0 15.872 5.365 15.872 14.891 0 9.547-6.752 14.901-15.872 14.901-9.142 0-15.915-5.365-15.915-14.901h-27.808c0 24.438 19.274 40.725 43.733 40.725 24.416 0 43.712-16.288 43.712-40.726 0-11.52-5.162-20.864-13.312-27.232 10.518-6.752 17.269-18.282 17.269-32.384 0.011-27.008-20.64-44.694-47.659-44.694zM301.984 154.229h-53.632v139.104h53.632c40.16 0 70.538-30.41 70.538-69.558s-30.4-69.546-70.538-69.546z" />
<glyph unicode="&#xe606;" d="M255.659 478.912c-140.896 0-255.114-114.219-255.114-255.114 0-140.885 114.219-255.115 255.114-255.115s255.104 114.23 255.104 255.115c0 140.896-114.208 255.115-255.104 255.115zM254.090 132.683c-24.64 59.147-101.856 54.208-101.856 111.722 0 42.72 24.768 60.79 50.934 60.79 27.339 0 45.578-22.752 50.912-35.125 5.355 12.373 23.584 35.125 50.944 35.125 26.154 0 50.923-18.070 50.923-60.79 0.022-57.515-77.184-52.576-101.856-111.722zM420.672 130.678h-29.142v-29.152h-19.435v29.152h-29.163v19.435h29.142v29.152h19.435v-29.152h29.142v-19.435z" />
<glyph unicode="&#xe607;" d="M360.202 114.005c17.376 29.675 26.517 63.2 26.517 97.291 0 106.688-86.774 193.462-193.462 193.462s-193.482-86.762-193.482-193.45c0-106.666 86.794-193.472 193.482-193.472 48.853 0 95.339 18.325 131.296 51.68l156.832-101.514 30.837 47.637-152.022 98.368zM193.258 74.582c-75.371 0-136.726 61.344-136.726 136.726s61.355 136.704 136.726 136.704 136.704-61.322 136.704-136.704c0.010-75.382-61.322-136.726-136.704-136.726z" />
<glyph unicode="&#xe608;" d="M512 256h-224v224h-64v-224h-224v-64h224v-224h64v224h224z" />
<glyph unicode="&#xe609;" d="M0 256h512v-64h-512v64z" />
<glyph unicode="&#xe60a;" d="M1.504 326.016h508.768v-69.088h-508.768v69.088zM1.504 181.558h508.768v-69.11h-508.768v69.11zM1.504 37.11h508.768v-69.11h-508.768v69.11z" />
<glyph unicode="&#xe60b;" d="M228.47 258.88l-228.47-0.010v-51.723h25.323v-102.25h26.453v-25.579h23.669v-27.147l23.978-23.978v-50.709h27.328v21.952h25.568v28.502h27.125v25.173h-25.418v26.23h-25.781v25.077h-50.251v25.046h24.555v26.752h26.219v24.245h25.152v25.206h48.202v26.442h26.346zM357.771 258.88v0l-23.574-32.906h-27.094v-25.536h-51.51v-26.752h-25.6v-26.187l-23.254-23.232v-28.726l21.322-21.376h23.083v-54.976l23.595-23.606 24.202 24.224v24.565l26.709 26.709v25.877h83.541l50.954-50.187 24.587 24.608-24.726 26.346h-26.699v23.819h27.050l23.957 24.064v76.875h27.68v36.394h-154.23zM279.147 124.565h-23.798v22.848h23.798v-22.848zM461.11 20.683l-26.858-0.053 0.224-26.454h25.77l26.325-26.176h24.661v77.664h-22.709z" />
<glyph unicode="&#xe60c;" d="M411.158 310.304h-52.672c0 62.966-46.432 114.219-103.466 114.219-57.077 0-103.478-51.254-103.478-114.219h-52.672c0 92.022 70.048 166.891 156.149 166.891s156.138-74.87 156.138-166.891zM45.334 276.981v-308.981h421.334v308.981h-421.334zM285.92 33.11h-63.21v178.784h63.21v-178.784z" />
<glyph unicode="&#xe60d;" d="M255.893 479.776c-141.333 0-255.893-114.57-255.893-255.882 0-141.333 114.56-255.894 255.893-255.894 141.323 0 255.882 114.56 255.882 255.894 0 141.312-114.56 255.882-255.882 255.882zM386.912 340.053l-134.186-133.962-134.144 133.962h268.33zM417.962 129.301c0-5.088-6.187-8.576-11.264-8.576h-307.861c-5.078 0-7.434 3.488-7.434 8.576v196.064l161.269-163.030 165.291 163.030v-196.064z" />
<glyph unicode="&#xe60e;" d="M345.43 291.477h43.894v-87.808h-43.894v87.808zM304.906 292.768l-169.877 0.074c-7.734-0.96-13.984-7.456-13.984-15.456 0-0.384 0-137.109 0-137.109h0.608c0.566-9.75 6.293-14.624 13.622-14.624h169.398c6.998 0 13.728 6.293 13.728 13.504 0 0-0.31 137.962-0.31 138.357 0 7.712-5.834 13.974-13.184 15.254zM256.010 480.075c-141.44 0-256.086-114.646-256.086-256.075 0-141.418 114.645-256.086 256.086-256.086 141.418 0 256.064 114.666 256.064 256.086 0 141.429-114.645 256.075-256.064 256.075zM385.568 87.125l-0.022-0.522h-0.587c-0.064 0 0 0.48-0.043 0.48-0.086 0 0 0.288-0.064 0.288l-260.522 0.106c-21.558 0-38.624 16.938-39.808 38.187 0 0-1.12 166.304-1.12 167.040 0 22.336 18.102 40.341 40.438 40.341l83.082-0.043-23.061 61.429c-2.688 7.104 0.917 15.030 8.022 17.696s14.998-0.938 17.685-8.043l26.208-69.803 36.245 71.211c3.413 6.762 11.69 9.462 18.454 6.016 6.774-3.445 9.462-11.723 6.016-18.474l-30.56-60.075 119.606 0.502c22.88-0.406 39.67-19.2 39.67-41.269l-0.171-161.675c0.106 0 0.171-2.101 0.171-3.37 0.010-22.058-17.675-39.606-39.637-40.022z" />
<glyph unicode="&#xe60f;" d="M224.224 180.426h16.128l-8.064 19.936zM392.938 115.829h-17.942v-13.558h17.942c4.064 0 6.774 2.4 6.774 6.774 0 4.394-2.709 6.784-6.774 6.784zM256.288 479.765c-141.312 0-255.872-114.56-255.872-255.882 0-141.312 114.56-255.882 255.872-255.882 141.322 0 255.882 114.57 255.882 255.872 0 141.322-114.57 255.893-255.882 255.893zM223.563 353.483c-2.496 33.13 22.422 62.101 55.541 64.608 33.142 2.474 62.123-22.442 64.608-55.574 2.496-33.12-22.442-62.101-55.541-64.598-15.19-1.12-30.026 3.466-41.984 12.992l-46.357-35.178-10.688 14.080 44.917 34.070c-6.080 8.81-9.707 19.008-10.496 29.6zM101.686 180.906c-10.442 0.693-22.251 3.594-22.251 16.661 0 11.413 11.168 17.568 22.666 17.568 11.392 0 18.016-4.8 21.206-7.978l-7.734-7.51c-2.56 2.55-6.538 5.11-13.483 5.11-4.224 0-11.498-1.354-11.498-7.19 0-5.334 6.144-5.792 13.162-6.293 12.043-0.875 22.752-3.413 22.752-16.918 0-12.139-12.544-17.483-24.416-17.483-8.704 0-17.558 2.454-24.266 8.768l7.648 7.659c4.085-4.224 10.4-6.048 16.63-6.048 4.683 0 13.227 1.11 13.227 7.488 0 5.046-4.704 5.504-13.642 6.166zM143.477 115.829h-30.731v-11.584h27.936v-10.368h-27.936v-23.531h-11.168v55.84h41.898v-10.358zM166.645 70.358h-11.168v55.851h11.168v-55.851zM166.816 194.709l-9.963-36.63h-10.379l-17.558 55.851h11.254l11.19-37.589 10.272 37.589h10.4l10.293-37.589 11.168 37.589h11.254l-17.547-55.851h-10.4l-9.984 36.63zM232.085 70.358h-11.584l-27.52 38.454v-38.454h-11.19v55.851h11.584l27.541-38.538v38.538h11.168v-55.851zM220 170.038l-4.875-11.957h-11.958l23.542 55.851h11.168l23.52-55.851h-11.958l-4.853 11.957h-24.587zM268.81 70.358h-21.547v55.851h21.547c16.106 0 28.33-12.214 28.33-27.914 0-15.723-12.224-27.936-28.331-27.936zM288.971 203.574v-45.493h-11.211v45.493h-17.942v10.368h47.082v-10.368h-17.93zM350.229 115.829h-30.709v-11.584h27.914v-10.368h-27.914v-13.173h30.709v-10.358h-41.899v55.84h41.899v-10.358zM340.288 156.885c-16.661 0-29.355 12.842-29.355 29.11 0 16.277 12.672 29.13 29.355 29.13 10.774 0 20.522-5.45 25.462-15.168l-9.558-5.344c-2.976 6.038-8.789 10.123-15.894 10.123-10.688 0-18.176-8.459-18.176-18.774 0-10.272 7.488-18.731 18.176-18.731 7.104 0 12.918 4.064 15.894 10.123l9.558-5.354c-4.938-9.685-14.688-15.115-25.462-15.115zM409.205 70.358h-12.224l-13.216 21.558h-8.768v-21.558h-11.19v55.851h27.936c5.813 0 9.558-1.184 12.522-3.424 4.064-3.029 6.624-7.882 6.624-13.738 0-5.813-2.56-10.666-6.624-13.707-2.229-1.685-4.853-2.805-8.459-3.19l13.397-21.792zM425.856 158.080h-11.168v23.52h-25.942v-23.52h-11.168v55.851h11.168v-21.93h25.942v21.942h11.168v-55.861zM268.726 115.829h-10.293v-35.125h10.293c10.144 0 17.226 7.914 17.226 17.568 0.010 9.675-7.072 17.558-17.226 17.558zM286.837 315.542c23.392 1.75 41.002 22.25 39.254 45.642-1.771 23.402-22.23 41.034-45.632 39.274-23.413-1.75-41.024-22.24-39.254-45.642 1.728-23.413 22.208-41.024 45.632-39.274z" />
<glyph unicode="&#xe610;" d="M255.669 479.339c-141.216 0-255.669-114.475-255.669-255.67 0-141.216 114.454-255.669 255.669-255.669 141.195 0 255.669 114.454 255.669 255.669 0 141.195-114.474 255.669-255.669 255.669zM425.856 305.067l-15.040-11.734-11.733 15.040-10.016-7.819 11.744-15.029-15.029-11.733 15.659-20.053-15.029-11.733-39.125 50.112-101.344-79.125c7.413-22.176 0.597-47.584-18.891-62.784-12.672-9.899-28.214-13.526-42.944-11.424l-58.88-68.384-70.41 90.187 80.843 40.587c1.6 14.72 8.875 28.79 21.483 38.613 19.403 15.168 45.558 15.637 65.238 3.221l171.563 133.93 62.592-80.171-15.029-11.744-15.648 20.042z" />
<glyph unicode="&#xe611;" d="M166.702-2.362v34.166l143.654 144.431-143.654 144.43v34.944l178.597-179.374z" />
<glyph unicode="&#xe612;" d="M501.75 0l-221.899 224 221.899 224h-47.37l-198.357-196.886-0.042 0.64-0.054-0.917-198.357 197.163h-47.318l221.845-224-221.845-224h47.318l198.357 201.344 0.054 1.589 0.042-2.4 198.357-200.534z" />
<glyph unicode="&#xe613;" d="M511.829 480l-511.829-0.341v-511.659h512l-0.171 512zM354.507 401.024c0 10.87 8.81 19.68 19.68 19.68h59.040c10.89 0 19.702-8.822 19.702-19.68v-59.072c0-10.87-8.822-19.68-19.702-19.68h-59.040c-10.87 0-19.68 8.822-19.68 19.68v59.072zM256.075 322.272c54.368 0 98.432-44.064 98.432-98.421s-44.075-98.442-98.432-98.442-98.421 44.086-98.421 98.442c-0.011 54.358 44.053 98.421 98.421 98.421zM256.075 66.358c86.976 0 157.472 70.496 157.472 157.493 0 13.611-1.92 26.784-5.163 39.382h44.555v-216.565c0-10.858-8.822-19.669-19.702-19.669h-354.325c-10.891 0-19.701 8.81-19.701 19.669v216.565h44.555c-3.243-12.597-5.174-25.77-5.174-39.382 0.010-86.998 70.507-157.494 157.482-157.494z" />
<glyph unicode="&#xe614;" d="M0 480v-512h512v512h-512zM388.235 333.654l-134.186-133.962-134.144 133.962h268.331zM419.286 122.901c0-5.088-6.187-8.576-11.264-8.576h-307.861c-5.078 0-7.434 3.488-7.434 8.576v196.064l163.243-163.115 163.328 163.115v-196.064z" />
<glyph unicode="&#xe615;" d="M0 480v-512h512v512h-512zM163.606 297.248l-97.493-73.226 97.493-73.248v-17.483l-120.939 90.731 120.939 90.699v-17.472zM227.040 96.896h-15.648l73.558 254.208h15.67l-73.579-254.208zM348.394 133.291v17.483l97.493 73.226-97.493 73.238v17.483l120.938-90.72-120.938-90.709z" />
<glyph unicode="&#xe616;" d="M256 357.099c-59.37 103.286-256 90.762-256-84.522 0-145.558 256-304.576 256-304.576s256 151.99 256 304.576c0 175.286-196.65 187.808-256 84.522z" />
<glyph unicode="&#xe617;" d="M483.040 372.746c-2.656 2.272-66.762 55.413-149.077 55.413-50.731 0-95.915 19.979-119.659 32.779-0.138 8.075-5.258 15.552-13.387 18.123-10.176 3.254-21.056-2.368-24.31-12.544l-150.869-473.301c-3.274-10.176 2.368-21.077 12.544-24.31 1.952-0.63 3.936-0.906 5.888-0.906 8.192 0 15.808 5.248 18.432 13.472l91.253 286.219c25.824-13.984 70.56-32.501 126.688-32.501 79.478 0 133.13-49.056 133.685-49.557 2.154-2.038 5.014-3.136 7.904-3.136 0.992 0 1.984 0.139 2.944 0.384 3.84 1.014 6.933 3.936 8.139 7.765l53.45 169.728c1.387 4.469-0.032 9.365-3.627 12.373z" />
<glyph unicode="&#xe618;" d="M256.010 269.536l-182.901-160.939h39.541v-114.816h280.33v114.837l45.888-0.010-182.858 160.928zM335.829 67.978h-55.498v-57.75h-44.171v57.75h-55.488v44.16h55.488v52.106h44.171v-52.106h55.498v-44.16zM256.010 303.872l-251.232-221.056h82.091v-114.816h331.904v114.827l88.448-0.010-251.21 221.056zM403.659 97.952v-114.837h-301.664v114.816h-57.152l211.168 185.813 211.136-185.803-63.488 0.010z" />
<glyph unicode="&#xe619;" d="M256.010 303.872l-251.232-221.056h82.091v-114.816h331.904v114.827l88.448-0.010-251.21 221.056zM335.829 67.978h-55.498v-57.75h-44.171v57.75h-55.488v44.16h55.488v52.106h44.171v-52.106h55.498v-44.16z" />
<glyph unicode="&#xe61a;" d="M404.618 283.147h-64.31c-1.738 28.618-12.928 134.293-84.746 134.293s-82.357-105.589-83.872-134.293h-64.288c-3.957 0-7.168-3.21-7.168-7.168v-300.81c0-3.957 3.21-7.168 7.168-7.168h297.226c3.957 0 7.168 3.211 7.168 7.168v300.81c-0.022 3.958-3.221 7.168-7.178 7.168zM305.493 113.291h-35.382v-36.853h-28.214v36.853h-35.392v28.16h35.382v33.248h28.214v-33.248h35.382v-28.16zM186.048 283.147c1.632 26.774 11.499 119.968 69.504 119.968 57.93 0 68.49-93.13 70.336-119.968h-139.84z" />
<glyph unicode="&#xe61b;" d="M256.394 278.475l-215.989 83.69 215.2 85.781 215.989-83.702-215.2-85.77zM244.118 260.853v-292.853l-206.998 79.274v292.853l206.998-79.274zM185.941 156.768l-41.376 17.163v60.971l-26.422 11.381v-61.408l-41.386 17.152v-39.637l41.386-17.152v-60.992l26.422-11.37v61.418l41.376-17.142v39.616zM474.88 340.128v-292.853l-206.998-79.274v292.853l206.998 79.274zM435.243 202.517l-41.387-17.526v61.408l-26.421-11.616v-60.981l-41.376-17.536v-39.627l41.376 17.526v-61.408l26.421 11.606v60.992l41.387 17.526v39.637z" />
<glyph unicode="&#xe61c;" d="M255.989 417.77c-77.696 0-140.683-62.986-140.683-140.693 0-95.722 121.664-290.038 140.683-309.077 19.605 19.606 140.704 212.202 140.704 309.077 0 74.954-62.998 140.693-140.704 140.693zM255.989 205.365c-41.514 0-75.168 33.654-75.168 75.168s33.654 75.178 75.168 75.178c41.525 0 75.179-33.664 75.179-75.178s-33.654-75.168-75.178-75.168z" />
<glyph unicode="&#xe61d;" d="M505.195 443.776c-2.272 1.024-6.176 1.856-8.661 1.856h-481.046c-2.496 0-6.4-0.832-8.672-1.856l-4.288-4.277c-1.014-2.272-1.845-6.187-1.845-8.672v-330.635c0-2.486 0.832-6.4 1.845-8.672l4.277-4.267c2.272-1.024 6.186-1.856 8.672-1.856h177.291c2.496 0 5.451-1.824 6.56-4.053l54.645-109.291c1.109-2.229 2.933-2.229 4.053 0l54.646 109.28c1.11 2.229 4.075 4.053 6.56 4.053h177.301c2.486 0 6.4 0.832 8.661 1.856l4.267 4.267c1.014 2.283 1.846 6.187 1.846 8.672v330.635c0 2.496-0.832 6.4-1.846 8.672l-4.267 4.288z" />
<glyph unicode="&#xe61e;" d="M256 480c-141.387 0-256-114.613-256-256s114.614-256 256-256 256 114.613 256 256-114.613 256-256 256zM402.731 158.454c0-6.88-5.568-12.448-12.438-12.448h-48.768l7.541-49.45c0.214-0.789 0.33-1.622 0.33-2.474 0-5.152-4.182-9.334-9.334-9.334h-168.064c-2.709 0-5.291 1.184-7.061 3.253s-2.56 4.8-2.144 7.488l7.712 50.517h-48.779c-6.87 0-12.427 5.568-12.427 12.448v146.25c0 6.88 5.558 12.448 12.427 12.448h64.278v38.325c0 4.288 3.477 7.776 7.776 7.776h124.48c4.288 0 7.776-3.478 7.776-7.776v-38.325h64.267c6.87 0 12.438-5.568 12.438-12.448v-146.25zM134.144 170.901h40.149l4.042 26.432c0.683 4.555 4.608 7.925 9.216 7.925h136.906c4.608 0 8.534-3.37 9.226-7.925l4.022-26.432h40.149v121.354h-243.712v-121.354zM177.109 269.44h30.080c5.152 0 9.334-4.181 9.334-9.334s-4.181-9.334-9.334-9.334h-30.080c-5.162 0-9.334 4.181-9.334 9.334s4.16 9.334 9.334 9.334zM310.474 317.152h-108.928v30.538h108.939v-30.538zM316.459 186.582l12.683-83.168h-146.272l12.694 83.168h120.896z" />
<glyph unicode="&#xe61f;" d="M0 480v-512h512v512h-512zM431.424 114.795l-51.563-0.714c0 0-11.082-2.197-25.664 7.818-19.286 13.238-37.472 47.659-51.648 43.168-14.368-4.565-13.92-35.52-13.92-35.52s0.106-6.613-3.168-10.134c-3.563-3.829-10.528-4.608-10.528-4.608h-23.072c0 0-50.912-3.062-95.766 43.627-48.906 50.912-92.096 151.957-92.096 151.957s-2.486 6.624 0.213 9.824c3.040 3.606 11.317 3.829 11.317 3.829l55.168 0.363c0 0 5.195-0.864 8.917-3.595 3.072-2.262 4.79-6.475 4.79-6.475s8.917-22.549 20.726-42.944c23.050-39.829 33.781-48.534 41.611-44.267 11.403 6.219 7.978 56.298 7.978 56.298s0.214 18.176-5.738 26.272c-4.608 6.272-13.291 8.096-17.131 8.608-3.104 0.416 1.994 7.616 8.597 10.858 9.93 4.864 27.456 5.142 48.171 4.928 16.139-0.16 20.789-1.173 27.094-2.698 19.019-4.587 12.565-22.326 12.565-64.864 0-13.621-2.454-32.779 7.37-39.136 4.224-2.731 14.56-0.405 40.416 43.488 12.245 20.811 21.44 45.269 21.44 45.269s2.005 4.363 5.12 6.23c3.19 1.909 7.498 1.322 7.498 1.322l58.058 0.363c0 0 17.44 2.080 20.267-5.792 2.966-8.267-6.517-27.563-30.23-59.179-38.944-51.904-43.274-47.050-10.944-77.056 30.89-28.672 37.291-42.624 38.336-44.352 12.779-21.226-14.187-22.89-14.187-22.89z" />
<glyph unicode="&#xe620;" d="M317.526 366.005h-126.389c-6.742 0-7.264-2.688-7.264-6.453v-258.304c0-3.776 0.523-6.464 7.264-6.464h126.389c6.208 0 7.274 1.995 7.274 6.464v258.304c-0.010 4.469-1.067 6.454-7.274 6.454zM265.056 109.536c-2.837-2.848-6.741-4.459-10.731-4.459-3.978 0-7.872 1.611-10.72 4.459-2.838 2.827-4.438 6.752-4.438 10.72 0 4.022 1.6 7.925 4.438 10.731 2.794 2.837 6.72 4.448 10.72 4.448 4.010 0 7.894-1.611 10.731-4.448 2.837-2.805 4.448-6.709 4.448-10.731 0-3.978-1.622-7.904-4.448-10.72zM314.635 151.19c0-3.733-3.019-6.752-6.741-6.752h-107.136c-3.733 0-6.752 3.019-6.752 6.752v191.798c0 3.723 3.018 6.742 6.752 6.742h107.136c3.723 0 6.741-3.019 6.741-6.742v-191.798zM207.51 336.245h93.642v-178.326h-93.642v178.326zM256 480c-141.387 0-256-114.613-256-256s114.614-256 256-256 256 114.613 256 256-114.613 256-256 256zM345.014 101.248c0-16.224-10.794-26.709-27.488-26.709h-126.389c-16.683 0-27.488 10.474-27.488 26.709v258.304c0 16.224 10.805 26.699 27.488 26.699h126.389c16.694 0 27.488-10.475 27.488-26.699v-258.304z" />
<glyph unicode="&#xe621;" d="M0 480v-512h512v512h-512zM458.666 339.99l-49.301-0.011c-32.416 0-46.699-15.413-46.699-38.026v-45.952h92.31l-10.058-85.334h-82.25v-202.666h-64v202.667h-64v85.334h64v53.675c0 66.826 40.459 103.221 100.086 103.221 28.576-0.010 49.248-2.123 59.914-3.082v-69.824z" />
<glyph unicode="&#xe622;" d="M204.726 389.397c-8.085 5.824-17.376 8.928-27.862 9.259-13.899-0.331-25.44-5.942-34.656-16.79-7.766-11.349-11.488-24.053-11.125-38.080 0-18.528 5.408-37.803 16.256-57.867 5.269-9.354 12.022-17.28 20.352-23.786 8.298-6.528 17.792-9.792 28.47-9.792 13.504 0.501 24.736 5.365 33.728 14.549 4.352 6.507 7.136 13.184 8.374 20.043 0.736 6.858 1.12 12.608 1.12 17.291 0 20.202-5.173 40.598-15.51 61.12-4.853 9.846-11.232 17.877-19.147 24.053zM201.28 170.358c-2.602 0.32-9.302 0-20.075-1.002-10.602-1.504-21.472-3.914-32.576-7.253-2.613-1.002-6.272-2.507-10.998-4.512-4.736-2.166-9.547-5.248-14.454-9.248-4.736-4.171-8.736-9.334-11.99-15.51-3.776-6.507-5.621-14.346-5.621-23.498 0-18.016 8.138-32.853 24.459-44.522 15.52-11.67 36.726-17.664 63.659-18.005 24.16 0.341 42.613 5.675 55.328 16.010 12.416 10.187 18.614 23.253 18.614 39.274 0 13.024-4.235 24.341-12.714 34.005-8.982 9.163-23.008 20.416-42.112 33.771-3.286 0.33-7.114 0.49-11.52 0.49zM0 480v-512h512v512h-512zM258.688 387.158c3.861-4 7.637-8.32 11.339-14.134 3.552-5.504 6.688-11.68 9.44-19.19 2.25-7.488 3.37-16.096 3.37-26.101-0.298-18.336-4.341-32.906-12.16-43.925-3.798-5.333-7.851-10.208-12.128-14.72-4.746-4.48-9.781-9.066-15.114-13.728-3.061-3.168-5.877-6.742-8.47-10.742-3.050-4.171-4.576-8.992-4.576-14.486 0-5.376 1.568-9.76 4.694-13.259 2.656-3.328 5.248-6.25 7.755-8.747l17.397-14.25c10.805-8.864 20.267-18.57 28.416-29.248 7.67-10.848 11.669-25.002 12-42.496 0-24.843-10.976-46.837-32.918-66.026-22.709-19.829-55.552-30.070-98.442-30.752-35.915 0.33-62.709 8-80.427 22.944-17.856 13.995-26.805 30.709-26.805 50.176 0 9.472 2.891 20.064 8.736 31.712 5.621 11.627 15.84 21.866 30.635 30.688 16.587 9.462 34.027 15.798 52.299 18.954 18.101 2.656 33.12 4.171 45.088 4.49-3.702 4.864-6.987 10.058-9.888 15.584-3.37 5.365-5.046 11.829-5.046 19.349 0 4.522 0.64 8.32 1.91 11.328 1.131 3.19 2.186 6.090 3.136 8.79-5.814-0.661-11.317-0.992-16.459-0.992-27.306 0.331-48.096 8.928-62.41 25.739-14.986 15.702-22.486 33.941-22.486 54.773 0 25.173 10.603 48 31.84 68.512 14.56 11.99 29.706 19.99 45.408 23.68 15.595 3.147 30.166 4.918 43.766 4.918h102.496l-31.648-21.334h-31.606c3.243 0 6.838-3.669 10.858-7.51zM448 330.667h-53.334v-53.334h-21.334v53.334h-53.334v32h53.334v53.334h21.334v-53.334h53.334v-32z" />
<glyph unicode="&#xe623;" d="M0 480v-512h511.99v512h-511.99zM363.2 63.648c-15.69-7.296-29.888-12.459-42.613-15.413-12.747-2.954-26.496-4.416-41.269-4.416-16.81 0-26.698 2.080-39.606 6.25-12.906 4.214-23.893 10.25-33.002 17.984-9.131 7.786-15.424 16.106-18.954 24.832-3.52 8.768-5.291 21.462-5.291 38.123v127.659h-49.888v51.552c14.432 4.63 31.168 11.307 41.418 19.968 10.315 8.694 18.571 19.104 24.779 31.286 6.24 12.139 10.528 27.573 12.864 46.389h52.245v-84.224h84.896v-64.96h-84.896v-93.344c0-21.12-0.288-33.291 1.974-39.274 2.25-5.962 7.861-12.149 14.005-15.712 8.128-4.81 17.397-7.253 27.851-7.253 18.603 0 37.088 5.995 55.488 17.984v-57.43z" />
<glyph unicode="&#xe624;" d="M0 480v-512h512v512h-512zM253.248 37.44c-17.77 0-34.934 2.709-51.147 7.648 6.848 11.211 14.346 25.589 18.166 39.947 2.219 8.31 12.694 51.286 12.694 51.286 6.262-12.341 24.597-23.243 44.085-23.243 58.005 0 100.864 53.589 100.864 126.762 0 55.307-48.842 107.904-117.738 107.904-85.77 0-128.992-63.552-128.992-116.522 0-32.075 11.744-60.618 36.97-71.243 4.128-1.75 7.819-0.075 9.024 4.672 0.843 3.274 2.827 11.52 3.669 14.966 1.238 4.683 0.768 6.315-2.582 10.389-7.264 8.875-11.904 20.331-11.904 36.597 0 47.126 34.112 89.302 88.853 89.302 48.458 0 78.282-31.147 78.282-72.010 0-53.781-26.197-98.592-60.416-98.592-18.858 0-32.992 16.128-28.459 35.904 5.398 23.627 15.936 49.13 15.936 66.197 0 15.254-7.936 27.99-24.331 27.99-19.306 0-34.838-20.662-34.838-48.278 0-17.611 5.781-29.514 5.781-29.514s-19.755-86.475-23.232-101.632c-3.221-14.144-3.637-29.792-3.125-42.837-63.616 28.843-121.888 94.496-121.888 170.869 0 103.008 94.645 186.475 194.315 186.475 99.659 0 195.53-83.466 195.53-186.475 0-103.018-95.861-186.56-195.52-186.56z" />
<glyph unicode="&#xe625;" d="M216.438 274.827l80.459-52.714-80.459-52.714v105.43zM511.99 480v-512h-511.99v512h511.99zM428.8 222.816c0 51.21-5.728 81.418-5.728 81.418-3.317 17.43-20.288 34.325-37.75 37.546 0 0-31.894 5.888-135.722 5.888-103.819 0-135.733-5.888-135.733-5.888-17.44-3.221-34.4-20.128-37.664-37.558 0 0-5.802-30.912-5.802-81.408 0-50.486 5.802-81.397 5.802-81.397 3.264-17.418 20.309-33.77 37.867-36.31 0 0 49.493-7.125 135.53-7.125 86.048 0 135.541 7.125 135.541 7.125 17.558 2.538 34.624 18.88 37.942 36.31-0.010 0 5.717 30.208 5.717 81.397z" />
<glyph unicode="&#xe626;" d="M0 480v-512h511.99v512h-511.99zM428.096 338.923c-6.272-10.197-14.709-20.554-23.755-27.978-3.648-2.965-7.296-5.952-10.933-8.928 0.214-16.522-0.245-32.267-3.253-46.154-17.483-80.694-63.819-135.488-137.173-158.965-26.336-8.416-68.906-11.872-99.082-4.192-14.954 3.808-28.49 8.128-41.173 13.813-7.040 3.168-13.568 6.582-19.819 10.496-2.037 1.269-4.106 2.56-6.144 3.829 6.816-0.214 14.773-2.123 22.379-0.875 6.891 1.142 13.642 0.853 20 2.272 15.829 3.584 29.91 8.288 42.016 15.584 5.877 3.52 14.784 7.67 18.954 12.747-7.862-0.149-14.998 1.728-20.832 3.851-22.667 8.214-35.829 23.317-44.416 45.984 6.858-0.768 26.624-2.603 31.254 1.397-8.63 0.502-16.939 5.622-22.891 9.462-18.219 11.702-33.078 31.339-32.971 61.547 2.4-1.163 4.778-2.336 7.168-3.499 4.587-1.984 9.227-3.040 14.71-4.202 2.293-0.48 6.901-1.877 9.558-0.864-0.118 0-0.224 0-0.341 0-3.531 4.214-9.269 7.019-12.811 11.542-11.691 14.912-22.645 37.877-15.722 65.216 1.749 6.933 4.544 13.077 7.52 18.72 0.106-0.064 0.224-0.118 0.341-0.182 1.355-2.923 4.384-5.077 6.304-7.51 5.984-7.606 13.355-14.442 20.853-20.47 25.568-20.534 48.597-33.141 85.579-42.486 9.398-2.378 20.224-4.192 31.435-4.202-3.147 9.408-2.133 24.651 0.331 33.75 6.24 22.901 19.787 39.413 39.638 48.256 4.747 2.112 10.016 3.659 15.541 4.896 2.858 0.341 5.707 0.694 8.544 1.046 27.136 0.502 41.568-9.654 55.36-22.549 11.69 1.034 26.912 7.744 35.872 12.416 2.89 1.622 5.792 3.264 8.704 4.896-5.12-14.197-12.064-25.312-22.731-33.749-2.358-1.878-4.704-4.406-7.69-5.59 0-0.064 0-0.117 0-0.181 15.211 0.171 27.755 7.2 39.648 11.018 0.032-0.032 0.032-0.106 0.032-0.16z" />
<glyph unicode="&#xe627;" d="M256 480c-141.387 0-256-114.613-256-256s114.614-256 256-256 256 114.613 256 256-114.613 256-256 256zM276.938 114.87h-41.899v161.13h41.899v-161.13zM255.989 296.95c-14.176 0-25.781 11.594-25.781 25.781 0 14.176 11.606 25.781 25.781 25.781s25.782-11.606 25.782-25.781c0-14.187-11.606-25.781-25.781-25.781z" />
<glyph unicode="&#xe628;" d="M378.774 115.584v-22.197c5.226 5.216 12.672 7.829 20.502 7.829 8.747 0 15.808-2.741 21.163-8.096 5.483-5.622 7.957-13.067 7.957-22.603v-36.565h-11.755v36.565c0 5.75-1.163 10.442-4.171 13.984-3.274 3.786-7.978 5.611-13.462 5.611-5.877 0-10.976-1.962-14.496-5.354-3.786-3.659-5.75-8.885-5.75-14.89v-35.914h-11.755v81.622h11.765zM281.462 33.962v11.094h-13.707c-2.219 0-4.31 1.056-5.611 2.752-1.046 1.301-1.568 3.264-1.568 5.099v35.264h20.885v11.104h-20.885v16.32h-11.755v-62.688c0-5.099 1.963-9.93 5.226-13.322 3.392-3.531 8.352-5.611 13.707-5.611h13.707zM111.029 99.264v-45.067c0-3.392-0.918-6.272-2.88-8.224-1.835-1.962-4.576-2.88-7.573-2.88-3.008 0-5.749 0.918-7.584 2.88-1.963 1.962-2.87 4.832-2.87 8.224v45.067h-11.755v-45.067c0-6.656 2.091-12.022 6.133-16.064 4.053-4.053 9.674-6.134 16.075-6.134s12.011 2.080 16.32 6.517c4.32-4.438 9.93-6.517 16.331-6.517 6.411 0 12.022 2.080 16.075 6.134 4.042 4.043 6.133 9.408 6.133 16.064v45.067h-11.766v-45.067c0-3.392-0.906-6.272-2.869-8.224-1.834-1.962-4.576-2.88-7.584-2.88-2.998 0-5.739 0.918-7.573 2.88-1.963 1.962-2.88 4.832-2.88 8.224v45.067h-11.733zM45.066 33.962c5.749 0 10.709 1.962 14.24 5.354 3.776 3.52 5.995 8.49 5.995 14.229 0 5.75-2.218 10.72-5.995 14.24-3.531 3.392-8.49 5.354-14.24 5.354h-25.472c-2.218 0-4.053 0.661-5.494 1.962-1.44 1.312-2.357 3.274-2.357 5.493s0.918 4.182 2.357 5.483c1.44 1.312 3.274 2.091 5.494 2.091h42.443v11.104h-42.443c-5.098 0-10.059-1.834-13.579-5.099-3.659-3.286-6.016-8.118-6.016-13.589 0-5.493 2.474-10.187 6.133-13.462 3.53-3.136 8.363-5.099 13.461-5.099h25.472c2.346 0 4.438-0.779 6.005-2.346 1.429-1.44 2.474-3.531 2.474-6.144s-1.056-4.694-2.474-6.134c-1.568-1.558-3.669-2.358-6.005-2.358h-43.104v-11.094h43.104zM212.896 45.707c-3.274-1.696-7.050-2.613-11.104-2.613-6.133 0-11.882 2.358-15.798 6.528-3.786 4.053-5.75 9.803-5.75 15.936s1.963 11.882 5.75 15.936c3.915 4.181 9.408 6.656 15.798 6.656h16.982v-54.197h11.766v65.302h-28.736c-9.792 0-17.76-3.531-23.893-9.664-6.006-6.134-9.408-14.762-9.408-24.032s3.264-17.899 9.408-24.032c5.994-6.005 14.613-9.526 23.882-9.526 3.915 0 7.573 0.651 11.104 1.962v11.744zM308.106 83.062c4.192 4.438 10.058 7.050 16.459 7.050 4.31 0 8.373-1.046 11.776-3.136 3.52-2.091 6.123-5.216 8.224-9.014l10.038 5.75c-2.998 5.483-7.317 9.93-12.544 13.067-4.96 2.998-11.232 4.438-17.504 4.438-9.526 0-18.421-3.786-24.683-10.058-6.25-6.272-9.92-15.008-9.92-24.555 0-9.536 3.67-18.282 9.92-24.555 6.272-6.272 15.168-10.048 24.694-10.048 6.272 0 12.544 1.43 17.504 4.438 5.226 3.136 9.546 7.574 12.544 13.067l-10.038 5.738c-2.101-3.776-4.704-6.912-8.224-9.014-3.392-2.080-7.456-3.136-11.776-3.136-6.4 0-12.267 2.613-16.459 7.050-4.043 4.192-6.4 10.058-6.4 16.459-0.010 6.411 2.346 12.288 6.389 16.459zM421.088 109.568c0-4.043 3.274-7.317 7.317-7.317 4.064 0 7.339 3.274 7.339 7.317 0 4.053-3.274 7.328-7.339 7.328-4.053 0-7.317-3.274-7.317-7.328v0zM422.4 109.568c0 3.392 2.752 6.005 5.995 6.005 3.274 0 6.016-2.613 6.016-6.005s-2.752-5.995-6.016-5.995c-3.253 0-5.995 2.603-5.995 5.995v0zM430.229 105.792h1.558l-2.336 3.392c1.558 0 2.336 0.906 2.336 2.219 0 1.301-0.768 2.219-2.336 2.219h-4.064v-7.829h1.312v3.392h1.163l2.368-3.392zM426.709 110.368v2.080h2.752c0.651 0 1.046-0.384 1.046-1.046s-0.394-1.046-1.046-1.046h-2.752zM446.688 99.264v-65.302h65.312v65.302h-65.312zM505.462 58.774h-18.272v-18.293h-15.69v18.293h-18.272v15.669h18.272v18.293h15.69v-18.293h18.272v-15.669z" />
<glyph unicode="&#xe629;" d="M425.205 69.077c-0.086-0.022-0.214 0-0.31-0.022l0.522 0.075c-0.064-0.010-0.128-0.053-0.214-0.053v0zM74.475 44.448c0-3.402-1.216-6.368-3.669-8.789s-5.386-3.659-8.79-3.659h-24.704c-10.272 0-19.050 3.637-26.378 10.912-7.296 7.253-10.934 16.043-10.934 26.282v49.866c0 3.51 1.216 6.454 3.638 8.853 2.442 2.4 5.418 3.584 8.918 3.584 3.392 0 6.304-1.216 8.726-3.68 2.442-2.432 3.669-5.354 3.669-8.757v-18.038h35.157c3.2 0 5.909-1.13 8.192-3.392 2.304-2.283 3.424-4.981 3.424-8.139s-1.12-5.888-3.403-8.16c-2.282-2.262-4.992-3.392-8.181-3.392h-35.19v-8.704c0-3.445 1.195-6.336 3.605-8.768 2.41-2.368 5.334-3.594 8.746-3.594h24.672c3.445 0 6.389-1.184 8.832-3.648 2.454-2.454 3.669-5.365 3.669-8.779zM363.606 44.448c0-3.402-1.248-6.368-3.69-8.789s-5.354-3.659-8.789-3.659h-11.211c-10.293 0-19.104 3.637-26.4 10.912-7.274 7.253-10.954 16.043-10.954 26.282v49.866c0 3.51 1.226 6.454 3.69 8.853 2.421 2.4 5.397 3.584 8.875 3.584 3.392 0 6.336-1.216 8.768-3.68 2.442-2.432 3.67-5.354 3.67-8.757v-18.038h21.642c3.19 0 5.942-1.13 8.214-3.392 2.272-2.283 3.413-4.981 3.413-8.139s-1.142-5.888-3.413-8.16c-2.272-2.262-5.002-3.392-8.171-3.392h-21.685v-8.704c0-3.445 1.184-6.336 3.584-8.768 2.4-2.368 5.312-3.594 8.747-3.594h11.232c3.392 0 6.358-1.184 8.789-3.648 2.442-2.454 3.69-5.365 3.69-8.779v0zM298.336 44.448c0-3.402-1.226-6.368-3.67-8.789-2.454-2.432-5.397-3.659-8.832-3.659h-11.19c-10.283 0-19.094 3.637-26.379 10.912-7.296 7.253-10.922 16.043-10.922 26.282v49.866c0 3.51 1.195 6.454 3.637 8.853 2.422 2.4 5.376 3.584 8.886 3.584 3.413 0 6.347-1.216 8.758-3.68 2.442-2.432 3.659-5.354 3.659-8.757v-18.038h21.685c3.19 0 5.92-1.13 8.192-3.392 2.293-2.283 3.413-4.981 3.413-8.139s-1.12-5.888-3.392-8.16c-2.25-2.262-5.002-3.392-8.192-3.392h-21.707v-8.704c0-3.445 1.195-6.336 3.616-8.768 2.4-2.368 5.322-3.594 8.757-3.594h11.19c3.435 0 6.378-1.184 8.832-3.648 2.432-2.454 3.659-5.365 3.659-8.779zM194.869 66.795c0-9.589-3.413-17.781-10.25-24.576-6.827-6.805-15.050-10.219-24.672-10.219-8.8 0-16.554 2.976-23.221 8.906-6.582-5.93-14.282-8.906-23.082-8.906-9.621 0-17.846 3.413-24.672 10.219-6.816 6.795-10.24 14.976-10.24 24.576v24.32c0 3.274 1.162 6.038 3.434 8.277 2.304 2.229 5.046 3.339 8.224 3.339 3.222 0 5.963-1.11 8.245-3.339 2.282-2.24 3.434-5.014 3.434-8.298v-24.298c0-3.211 1.12-5.942 3.35-8.16 2.24-2.25 4.992-3.36 8.181-3.36 3.115 0 5.814 1.11 8.032 3.36 2.272 2.219 3.392 4.95 3.392 8.16v24.192c0 3.19 1.12 5.952 3.424 8.277s5.099 3.478 8.427 3.478c3.179 0 5.92-1.13 8.245-3.413 2.272-2.293 3.434-5.046 3.434-8.224v-24.298c0-3.211 1.109-5.942 3.36-8.16 2.24-2.25 4.917-3.36 8.022-3.36 3.221 0 5.952 1.11 8.192 3.36 2.25 2.219 3.36 4.95 3.36 8.16v24.288c0 3.19 1.142 5.942 3.446 8.224 2.262 2.283 5.046 3.413 8.224 3.413 3.19 0 5.963-1.13 8.234-3.413 2.304-2.25 3.446-5.014 3.446-8.214v-24.31h0.032zM228.544 121.781c0-3.413-1.195-6.325-3.659-8.779s-5.387-3.648-8.8-3.648c-3.434 0-6.368 1.184-8.821 3.648-2.411 2.454-3.669 5.365-3.669 8.779 0 3.392 1.258 6.325 3.669 8.779 2.453 2.454 5.387 3.659 8.822 3.659 3.413 0 6.346-1.195 8.8-3.659s3.659-5.387 3.659-8.779zM228.544 44.448c0-3.402-1.195-6.336-3.659-8.789-2.453-2.432-5.376-3.659-8.8-3.659-3.434 0-6.368 1.226-8.821 3.659-2.411 2.454-3.669 5.387-3.669 8.789v45.877c0 3.402 1.258 6.336 3.669 8.757 2.453 2.454 5.387 3.659 8.822 3.659 3.413 0 6.346-1.195 8.8-3.659 2.453-2.432 3.659-5.354 3.659-8.757v-45.877zM512 89.462c0-3.125-1.12-5.856-3.413-8.128-2.293-2.262-4.981-3.392-8.171-3.392h-17.067c-3.147 0-5.877-1.11-8.106-3.328s-3.328-4.885-3.328-8.075v-22.976c0-3.158-1.142-5.888-3.37-8.16-2.293-2.262-5.002-3.402-8.192-3.402-3.168 0-5.92 1.142-8.171 3.392-2.272 2.272-3.413 5.002-3.413 8.16v22.933c0 9.526 3.37 17.664 10.166 24.416 6.731 6.752 14.912 10.112 24.459 10.112h17.024c3.19 0 5.877-1.13 8.171-3.392 2.293-2.283 3.414-4.971 3.414-8.16v0zM402.646 32c-9.813 0-19.062 3.744-26.378 11.211-7.296 7.466-10.101 15.594-10.101 26.101 0 0-0.683 33.462 37.142 33.462 29.579 0 38.603-20.789 38.603-31.062 0-8.16-3.755-11.040-12.224-11.040h-37.834c0 0-1.376-8.661 15.851-8.661h21.6c5.526 0 10.005-4.469 10.005-10.005 0-5.526-4.48-9.995-10.005-9.995l-26.656-0.010zM392.106 76.587h24.853c0 8.16-12.352 8.16-12.352 8.16s-12.502-0.010-12.502-8.16z" />
<glyph unicode="&#xe62a;" d="M497.163 61.259c-8.171 0-14.816-6.496-14.816-14.517 0-7.99 6.646-14.486 14.816-14.486 8.192 0 14.837 6.496 14.837 14.486 0 8.022-6.646 14.517-14.837 14.517zM416.043 53.014l0.022 85.077h-8.938c0 0-14.88-5.376-25.579-6.517v-16.075h6.774c2.166 0 3.082-0.928 3.104-2.954v-59.52c0-2.101-1.226-3.264-3.211-3.382-1.728-0.118-5.546-0.363-5.546-0.363v-16.053h42.144v16.053c0 0-3.829 0.245-5.546 0.363-1.974 0.106-3.221 1.259-3.221 3.37zM501.248 95.243c-0.81 17.92-25.11 18.741-37.792 6.624l-2.315 6.944h-29.334v-16.426l6.144 0.010c2.187 0 2.976-0.928 3.019-2.954v-36.426c0-2.101-1.248-3.264-3.253-3.382-1.707-0.118-5.142-0.352-5.142-0.352v-16.064h41.334v16.064c0 0-3.413 0.235-5.12 0.352-2.005 0.128-3.232 1.28-3.232 3.382l-0.022 24.694c0 4.64 1.067 12.352 9.226 14.346 1.024-7.733 8.48-10.038 12.128-10.038 9.195-0.010 14.358 6.88 14.358 13.226zM345.558 109.813c-6.229-0.267-12.832-2.656-17.642-6.827v35.094h-8.832c0 0-14.496-5.142-25.707-6.517l-0.373-16.075 7.104-0.010c2.166 0 3.104-0.928 3.147-2.966v-79.328l20.224 0.022 2.89 6.507c0.63-0.341 9.92-9.088 24.768-7.339 18.666 2.187 28.48 16.992 28.48 39.435 0.010 11.786-3.594 39.349-34.058 38.005zM341.834 50.731c-3.435-0.245-9.813 0.32-13.92 7.52v10.528c0 0 0 7.659 0 12.182 0 5.269 4.875 9.888 12.416 10.166 7.606 0.277 14.358-4.918 14.358-19.616 0-19.808-8.704-20.48-12.853-20.779zM287.274 52.95c0 0 0 18.666 0 22.933 0 8.171-0.106 16.618-5.526 23.52-4.96 6.315-13.184 10.933-25.664 10.346-8.288-0.416-17.131-4.256-22.026-10.87l-0.757-0.971-0.47 0.565c-5.013 7.253-13.046 11.861-25.525 11.274-8.278-0.416-17.12-4.256-22.016-10.87l-0.726 9.866h-30.602v-16.448l7.050-0.096c2.176 0 3.094-0.928 3.125-2.966v-36.298c0-2.101-1.238-3.264-3.221-3.392-1.718-0.118-5.162-0.352-5.162-0.352v-16.075h41.365v16.075c0 0-3.264 0.224-5.162 0.352-2.006 0.139-3.221 1.291-3.221 3.392 0 0 0.022 20.512 0.022 24.64 0 4.106 3.403 12.522 14.186 12.522 8.694 0 10.486-5.301 10.486-11.466 0-6.154 0-25.685 0-25.685 0-2.101-1.238-3.264-3.232-3.392-1.696-0.118-5.152-0.352-5.152-0.352v-16.075h41.322v16.075c0 0-3.254 0.224-5.162 0.352-2.006 0.139-3.21 1.291-3.21 3.392h-0.064c0 0 0.042 20.512 0.042 24.64 0 4.106 3.030 12.522 13.814 12.522 8.694 0 10.88-5.301 10.88-11.466v-25.696c0-2.101-1.238-3.264-3.232-3.392-1.707-0.118-5.173-0.352-5.173-0.352v-16.053h41.376v16.053c0 0-3.253 0.224-5.142 0.352-2.038 0.128-3.221 1.291-3.221 3.392zM140.534 52.789v55.947h-34.389v-16.438h6.635c2.176 0 3.082-0.928 3.115-2.954l-0.032-25.526c0-2.496-1.802-11.894-14.326-12.128-8.544-0.171-10.347 4.864-10.347 11.466v45.568h-25.312v-46.858c0-11.861 5.418-30.528 30.688-29.846 8.299 0.235 17.802 4.406 22.752 10.528l0.213-9.43h28.203v16.064c0 0-2.272 0.182-3.978 0.288-1.994 0.128-3.221 1.205-3.221 3.317zM46.794 50.912c-8.406-0.224-10.026 5.781-10.102 10.134v30.187h19.573v17.504h-19.477v26.005c0 0-15.126 0-15.37 0s-0.694-0.224-0.747-0.768c-0.928-8.010-4.747-22.070-20.672-27.68v-15.050h12.117v-31.776c0-11.488 7.168-27.808 30.016-27.424 7.723 0.128 16.277 3.296 18.166 6.016l-5.045 14.656c-1.931-0.928-5.664-1.728-8.459-1.803z" />
<glyph unicode="&#xe62b;" d="M109.334 110.208c0.939 5.546 6.261 10.176 11.808 10.176s9.322-4.64 8.224-10.176c-0.928-5.707-6.24-10.346-11.797-10.346-5.707 0-9.323 4.64-8.234 10.346zM491.168 69.717c-2.582-9.995-4.672-17.376-4.672-20.534 0-3.659 1.92-5.813 5.334-5.813 5.899 0 8.896 4.96 10.101 9.654 0.245 1.046 0.875 1.642 1.942 1.642 0.832 0 3.563 0 5.376 0 1.024 0 1.6-0.822 1.291-1.856-3.808-13.248-12.544-22.346-26.56-22.346-9.92 0-14.421 6.048-14.421 14.070 0 5.974 8.896 38.816 8.896 38.816s-8.288 0-8.608 0c-1.6 0-2.421 1.088-2.038 2.507 0.267 1.099 1.269 5.088 1.813 7.382 0.394 1.579 1.376 2.272 3.082 2.272 0.214 0 8.832 0 8.832 0s5.163 15.243 5.163 23.786c0 10.389-6.603 16.81-16.747 16.81-14.603 0-21.642-10.272-21.642-22.731 0-20.032 15.563-21.002 15.563-30.358 0-3.286-2.016-6.848-6.517-6.848-5.334 0-8.459 4.192-9.962 7.957-1.546 0.416-4.373 1.226-8.149 1.226-5.856 0-9.269-1.984-9.269-6.315 0-5.28 6.229-6.741 13.707-9.45 9.205-3.328 18.123-7.317 18.123-18.176 0-12.010-9.899-21.088-27.37-21.088-12.726 0-22.454 5.088-26.293 11.36-8-6.325-17.269-11.264-30.774-11.264-17.248 0-26.858 11.402-26.858 24.875 0 2.358 0.192 4.842 0.587 7.36-2.538 0.576-5.067 1.12-7.413 1.611-2.517-1.696-5.642-2.635-9.483-2.635-4.96 0-8.661 3.2-8.661 6.709 0 5.376 4.064 7.882 9.11 6.89 0.394 0.683 0.832 2.016 0.832 3.541 0 3.243-1.526 5.291-5.184 5.291-10.421 0-17.334-17.418-21.664-34.187-2.229-8.757-3.829-14.923-4.043-15.712-0.373-1.589-1.462-2.368-2.976-2.368-1.046 0-8.608 0-11.040 0-1.834 0-2.496 1.216-2.101 2.774 0.064 0.277 0.938 3.659 2.187 8.608-7.019-7.349-16.96-12.757-29.792-12.757-12.608 0-21.184 6.187-24.853 14.837-4.416-7.445-11.947-14.837-24.427-14.837-7.51 0-11.595 3.466-13.142 8.651-4.224-4.864-10.026-8.651-17.898-8.651-11.573 0-13.856 7.936-13.856 14.091 0 8.106 6.208 26.592 6.613 31.765 0.363 4.672-2.784 7.072-6.422 7.072-7.68 0-13.12-5.824-15.317-14.646 0 0-8.352-32.789-8.746-34.411-0.394-1.696-1.142-2.464-3.083-2.464-2.442 0-8.694 0-11.179 0-1.792 0-2.282 1.334-1.888 2.87 0.043 0.182 0.49 1.866 1.152 4.534-4.608-4.928-10.645-8.8-18.294-8.8-9.92 0-13.514 6.048-13.514 14.070 0 4.48 2.592 14.038 4.971 23.445 3.254 12.938 6.326 24.565 6.326 24.565 0.416 1.44 1.12 2.474 3.094 2.474 2.475 0 8.576 0 10.922 0 1.867 0 2.507-1.259 2.154-2.709-0.288-1.13-2.901-10.837-5.877-22.613-2.432-9.642-4.469-17.45-4.469-20.618 0-3.637 1.525-5.813 4.96-5.813 6.656 0 12.907 8.438 15.478 18.528 3.755 14.741 7.648 30.080 7.776 30.624 0.341 1.354 0.97 2.592 3.286 2.592 2.357 0 8.363 0 10.858 0 1.718 0 2.442-1.301 2.090-2.613-0.32-1.238-1.248-4.49-1.248-4.49 3.061 3.968 10.326 8.48 17.312 8.48 11.083 0 16.501-5.856 16.501-15.936 0-7.574-6.538-24.214-6.538-30.87 0-4.224 1.654-6.197 5.547-6.197 6.538 0 10.528 12 11.733 17.13 2.528 10.656 5.654 22.55 5.718 22.816-4.81 0-8.512 0-8.821 0-1.6 0-2.442 1.088-2.059 2.507 0.278 1.099 1.302 5.088 1.834 7.382 0.374 1.579 1.387 2.272 3.072 2.272 0.202 0 9.024 0 9.024 0s4.523 18.176 4.597 18.486c0.587 2.336 1.834 3.211 3.446 3.541 1.621 0.33 10.304 2.026 10.304 2.026 1.824 0.394 3.584-0.822 3.094-2.901-0.138-0.534-5.312-21.152-5.312-21.152s10.858 0 11.232 0c1.589 0 2.432-1.077 2.037-2.507-0.278-1.099-1.28-5.088-1.834-7.382-0.384-1.568-1.376-2.272-3.072-2.272-0.224 0-5.216 0-11.424 0-1.355-5.472-2.592-10.411-3.403-13.642-2.442-9.642-4.661-17.376-4.661-20.534 0-3.659 1.92-5.813 5.333-5.813 7.030 0 13.525 10.56 14.432 18.25 2.176 18.496 15.050 34.805 36.032 34.805h0.022c14.166 0 21.355-8.576 21.355-16.747 0-15.168-10.709-22.752-28.043-22.752-3.978 0-9.728 0.864-12.298 1.888 0-10.89 5.099-16.363 14.954-16.363 14.954 0 26.848 11.115 29.142 20.064 3.67 14.325 7.392 29.034 7.712 30.208 0.438 1.771 1.526 2.325 3.082 2.325 0 0 8.416 0 10.912 0 1.92 0 2.442-1.387 2.123-2.624-0.043-0.214-0.853-3.37-2.058-8.128 4.875 7.286 11.894 12.139 19.296 12.139 10.646 0 14.603-7.574 14.603-13.984 0-3.712-0.726-7.050-1.75-9.942 1.269-0.277 2.56-0.587 3.851-0.896 4.565 13.002 14.998 24.81 33.642 24.81h0.022c14.166 0 21.334-8.576 21.334-16.747 0-15.168-11.37-22.752-28.043-22.752-3.978 0-9.984 0.842-12.288 1.558 0-10.901 5.11-16.032 14.954-16.032 10.005 0 17.067 3.424 23.52 8.714 0.853 4.298 4.245 7.594 8.267 7.594 4.768 0 7.339-2.966 7.339-6.613 0-2.613-1.248-4.171-2.080-4.832 1.248-1.558 6.080-5.728 14.912-5.728 7.435 0 11.232 2.336 11.232 6.272 0 5.856-6.89 7.072-14.4 9.675-8.438 2.954-17.44 7.37-17.44 18.762 0 12.128 9.685 20.459 25.067 20.459 1.12 0 2.229-0.043 3.317-0.106-2.56 4.032-4.651 10.517-4.651 16.086 0 19.094 13.163 32.661 33.355 32.661 17.92 0 30.517-12.64 30.517-27.488 0-7.435-3.435-18.858-4.31-22.368 6.038 0 11.872 0 12.267 0 1.579 0 2.4-1.077 2.038-2.507-0.288-1.099-1.291-5.088-1.834-7.382-0.373-1.568-1.397-2.272-3.104-2.272-0.224 0-12.416 0-12.416 0s-2.197-8.832-3.402-13.6zM368.896 67.478c2.4-0.789 6.421-1.462 9.312-1.462 8.043 0 13.205 4.043 13.205 10.688 0 3.914-2.358 7.211-7.317 7.211-9.76 0-14.176-10.336-15.2-16.438zM252.374 67.478c2.379-0.789 6.422-1.462 9.302-1.462 8.032 0 13.205 4.043 13.205 10.688 0 3.914-1.899 7.211-7.317 7.211-10.272 0-14.197-10.336-15.19-16.438zM53.184 145.536c-35.349 0-53.184-25.344-53.184-46.496 0-12.789 4.843-24.171 15.254-28.416 1.696-0.693 3.222-0.022 3.712 1.866 0.352 1.291 1.152 4.608 1.526 5.984 0.491 1.866 0.299 2.507-1.067 4.149-2.997 3.52-4.918 8.106-4.918 14.57 0 18.805 14.058 35.637 36.64 35.637 19.978 0 30.954-12.214 30.954-28.512 0-21.462-9.493-39.563-23.594-39.563-7.776 0-13.6 6.442-11.755 14.336 2.24 9.43 6.581 19.606 6.581 26.4 0 6.091-3.275 11.178-10.026 11.178-7.968 0-14.368-8.224-14.368-19.264 0-7.019 2.389-11.776 2.389-11.776s-8.139-34.486-9.568-40.534c-2.848-12.032-0.427-26.784-0.235-28.277 0.128-0.885 1.259-1.11 1.77-0.426 0.736 0.95 10.219 12.661 13.44 24.33 0.907 3.317 5.237 20.469 5.237 20.469 2.571-4.928 10.123-9.28 18.176-9.28 23.904 0 40.128 21.803 40.128 50.976 0 22.101-18.688 42.646-47.093 42.646z" />
<glyph unicode="&#xe62c;" d="M298.101 26.699c0.106-11.574 1.664-37.034-4.672-46.454-2.336-3.456-7.882-6.795-11.253-1.984-7.882 11.264 5.984 43.445 15.925 48.438v0zM288.726 97.152c6.229 2.134 8.981-3.733 9.771-9.163 1.046-7.178-1.984-10.272-2.283-16.971-1.184-26.038-16.789-40.352-19.744-19.819-1.813 12.672-0.416 41.621 12.256 45.952v0zM229.654 95.968c9.109 2.154 10.688-10.197 10.24-13.846-0.597-4.704-1.952 2.016-3.19-11.648-0.619-6.986-1.621-18.592-4.917-24.757-2.571-4.822-11.616-12.8-14.197 4.128-1.877 12.438-0.757 43.072 12.064 46.123v0zM188.597 134.635c-2.944 2.389-8.875 3.798-13.664 3.733-1.525-7.008-1.066-15.158-1.547-22.731-0.363-5.846-1.845-4.149-7.637-4.224-3.84-0.064-7.808 0.096-10.272-1.952-0.298-6.837 12.331-6.016 16.906-7.914 0.363-18.57-3.968-40.214 2.346-57.152 2.368-6.389 9.024-15.243 18.453-11.147 7.286 3.158 9.824 12.544 12.458 17.984 4.906-16.522 4.939-16.224 18.090-18.805 9.728-1.899 14.645 10.912 17.472 18.805 1.429-3.466 1.035-5.056 3.381-8.352 1.44-2.005 3.563-4.33 6.965-5.173 7.957-1.974 11.531 4.064 14.741 7.69l0.64 0.63c2.656-11.808 9.365-11.882 16.288-13.43 9.824-2.197 11.67 8.694 15.456 13.44-1.077-20.128 0.661-10.368-7.115-18.87-2.016-2.197-4.043-3.776-5.92-6.176-9.301-12.032-22.496-42.378-5.472-50.208 4.406-2.038 16.48-3.926 21.344-1.92 5.046 2.070 7.402 8.512 8.618 14.986 2.784 14.954 0.235 31.392 1.365 46.496 3.67 0.779 6.005-1.312 8.224 2.325-0.384 4.106-4.48 4.106-8.288 4.33-0.202 7.136-0.224 14.368 0 21.504 0.522 15.733 2.709 13.493 3.040 17.579-1.387 1.259-1.142 0.853-3.243 1.546-2.442 0.8-1.76 0.202-2.731 1.92-1.877 4.373 3.094 12.736-1.824 19.36-4.128 5.568-9.418 4.406-16.043 7.574-14.112 6.72-20.298-7.925-22.89-19.798-4.256-19.531 0.363-32.181-6.678-40.043-6.357-7.082-8.822 5.12-9.088 10.731-0.939 19.872 6.624 19.67-2.624 23.232-1.44 9.472 1.525 16.277-5.088 22.378-1.974 1.824-6.582 2.592-9.568 4.149-3.339 1.75-7.306 2.784-11.776 1.877-14.166-2.837-16.064-26.368-17.355-37.173-0.587-4.928-0.982 1.259-3.53-10.080-4.202-18.666-13.109-24.971-15.862-11.861-1.376 6.55-1.088 46.699 0.746 52.202 1.291 1.675 15.328 2.496 18.358 2.442 3.306-0.053 3.989-1.142 4.886-0.235 5.611 7.498-19.466 6.197-23.254 7.456l1.685 22.87zM386.325 95.894c8.245 2.336 10.656-8.022 10.4-13.28-0.171-3.392-0.086-1.397-1.579-3.584-3.274-4.768-0.192-32.288-11.211-38.24-11.669-6.293-10.592 19.978-9.984 27.606 0.714 8.81 2.784 24.779 12.373 27.498v0zM318.517 101.514c-0.267-8.267 0.95-16.842 0.672-25.44-0.139-4.235-0.245-8.48-0.832-12.608-0.438-3.072-2.038-8.096-1.344-10.816 5.995-2.080 7.050 8.832 7.872 13.685 0.906 5.43 1.493 14.613 2.837 19.082 0.981 0.224 2.080 0.555 3.349 0.469 6.091-0.406 1.472-10.112 2.123-23.574 0.512-10.442 4.448-33.546 19.328-28.022 5.728 2.134 7.829 7.968 10.464 13.717 2.016-3.67 3.19-13.269 11.669-14.55 8.96-1.344 13.909-3.733 20.81 11.168 0.544 1.163 0.726 1.92 1.205 3.158 0.245 0.64 0.448 1.099 0.768 1.6 0.64 1.014 0.256 0.502 0.971 1.195 1.056-6.528 5.259-12.95 12.31-13.259 7.328-0.32 11.2 6.57 14.070 11.094 0.672-4.16-0.106-10.966 3.264-12.714 3.082-1.6 10.219-2.432 13.44-0.822 1.589 2.058 1.11 7.637 1.418 10.55 0.363 3.478 0.842 6.848 1.44 10.24 0.576 3.264 2.112 15.882 5.45 17.738 1.589-11.904-2.656-30.89 5.238-34.358 1.771-0.779 3.702-0.981 5.696-0.938 6.784 0.128 4.576 2.57 7.029 12.245 1.675 6.603 6.24 22.731 10.005 26.827 0.149-9.654-1.728-16.512 0.267-26.731 3.424-17.654 18.923-23.040 28.394-5.846 1.685 3.062 7.776 17.824 4.683 21.355-4.971 5.13-4.587-11.882-9.483-18.762-2.005-2.827-6.774-5.984-9.152-1.472-1.558 2.912-2.005 8.352-2.112 12.192-0.853 29.675 9.365 27.882-0.757 34.389-4 2.57-6.389 3.050-11.851 2.283-2.582-1.44-12.822-33.995-14.582-36.971-0.534-0.906-0.298-0.522-0.8-1.056-0.182 7.349-0.053 14.858-0.053 22.23 0.010 3.786 0.906 7.178-1.888 9.046-2.262 1.514-5.877 2.005-9.024 1.408-4.587-0.906-6.741-8.48-8.277-13.173-0.981-2.998-4.416-14.026-4.694-16.224l-0.010 38.187c-1.75 2.666-9.322 3.606-12.618 2.507-0.683-1.771-0.726-22.89-0.832-26.678-0.16-5.75 0.459-8.918-1.163-12.534-1.248-2.774-1.834-6.933-3.115-10.080-3.798-9.365-10.134-9.056-11.574 2.315-0.502 3.914-0.576 8.853-0.235 12.885 0.298 3.68 2.283 8.618 1.824 11.264-1.834 2.101-2.123 1.472-4.544 3.104-1.11 5.728 0.426 12.171-1.738 17.493-2.678 6.55-5.269 5.248-11.328 7.914-4.906 2.154-9.067 4.768-15.69 2.058-4.822-1.995-6.912-5.312-9.238-10.005-2.134-4.32-3.563-9.579-4.448-14.805-0.779-4.63-0.992-13.526-2.101-17.088-2.272-7.274-4.48-26.56-12.971-25.546-4.864 4.565-4.16 16.864-3.488 24.235 0.373 4.352 0.96 8.438 1.909 12.534 0.8 3.531 3.019 8.16 2.837 11.616-4.363 6.368-14.464 2.56-20.32 5.568-0.32 3.648 0.32 6.048-0.534 9.514-4.298 1.685-7.51-0.32-10.55-2.795zM129.664 50.795c1.952 5.6 3.018 8.277 3.254 15.19 3.68-4.202 17.738-12.651 19.381-17.696 2.197-6.762-6.869-6.837-11.157-4.502-2.006 1.088-3.819 2.613-5.408 3.914-2.998 2.454-3.296 1.622-6.070 3.094v0zM93.376 38.699c2.123 5.942 4.438 29.13 10.379 34.048 0.757-12.565-4.118-33.109 12.022-32.459 5.312 0.214 7.776 2.976 10.432 4.971 2.634-3.498 3.414-4.651 8.459-6.336 11.094-3.68 34.006-2.101 31.542 10.080-2.144 10.688-33.109 19.861-22.432 34.197 1.654 2.229 7.286 4.672 10.688 2.442 0.458-0.298 5.024-6.219 9.302 0.086 1.834 2.709 3.978 8.779 1.302 11.616-5.142 5.45-25.76 0.16-33.462-7.466-7.254-7.178-5.056-14.624-0.075-22.144-5.728-1.568-1.781-1.067-5.472-11.296-1.621-4.522-3.638-8.822-8.918-7.957-4.448 7.040-1.206 21.046-1.77 30.89-0.331 5.824-2.582 12.757-9.323 10.858-5.504-1.568-11.488-18.699-14.23-25.589-0.512 7.050 0.448 28.885-0.171 32.298-0.683 3.776-9.92 5.536-11.264 3.51-0.778-1.163-2.208-42.954-2.368-46.379-0.192-3.925-0.022-11.594 2.005-14.283 2.336-3.072 9.568-2.080 13.355-1.088zM54.176 77.75c-11.36-2.293-13.995 6.858-15.221 17.014-3.242 27.168 10.752 37.728 15.349 30.25 1.568-2.56-0.117-10.336-0.096-14.336 0.032-10.912 0.181-22.026-0.032-32.928v0zM54.026 67.072c0.789-9.046-5.334-18.166-9.536-21.93-5.718-5.11-14.102-8.394-24.395-5.974-10.89 2.582-13.685 12.885-10.059 18.442 2.144 3.317 5.28 4.918 6.955 9.002 6.208 15.062-16.726 13.184-16.992-8.672-0.267-22.229 16.459-27.957 35.563-26.816 34.635 2.091 32.81 33.909 32.81 61.418 0 10.432-0.043 20.875 0 31.317 0.064 19.52 0.576 14.389-13.792 16.202-6.090 0.768-8.779-0.459-11.861-3.606-18.25-18.678-22.858-70.805 11.306-69.387z" />
<glyph unicode="&#xe62d;" d="M263.574 84.043c-4.224 0-7.264-1.387-10.357-2.784v-31.914c2.965-0.288 4.65-0.288 7.456-0.288 10.154 0 11.552 4.64 11.552 11.125v15.232c0 4.789-1.579 8.63-8.651 8.63zM196.202 85.781c-7.050 0-8.65-3.851-8.65-8.64v-2.678h17.28v2.678c0.011 4.789-1.6 8.64-8.63 8.64zM65.653 52.565c0-3.776 1.792-5.738 5.739-5.738 4.224 0 6.731 1.376 9.814 2.805v7.563h-9.248c-4.384-0.010-6.304-0.822-6.304-4.63zM329.142 84.043c-7.062 0-9.504-3.84-9.504-8.63v-17.462c0-4.8 2.442-8.651 9.504-8.651 7.019 0 9.504 3.84 9.504 8.651v17.462c0 4.789-2.474 8.63-9.504 8.63zM31.104 32.992h-20.736v50.112h-10.368v17.259h10.368v10.368c0 14.080 5.846 22.464 22.454 22.464h13.834v-17.269h-8.64c-6.474 0-6.901-2.411-6.901-6.912l-0.021-8.651h15.67l-1.834-17.259h-13.824v-50.112zM101.942 32.864h-17.28l-0.736 4.352c-7.894-4.352-14.933-5.077-19.573-5.077-12.672 0-19.413 8.469-19.413 20.149 0 13.803 7.861 18.72 21.942 18.72h14.336v2.976c0 7.040-0.8 9.11-11.648 9.11h-17.739l1.728 17.259h19.37c23.787 0 29.014-7.51 29.014-26.507v-40.981zM160.694 81.834c-10.752 1.834-13.834 2.24-19.008 2.24-9.291 0-12.096-2.038-12.096-9.93v-14.901c0-7.872 2.805-9.93 12.096-9.93 5.173 0 8.256 0.394 19.008 2.25v-16.832c-9.429-2.112-15.552-2.678-20.726-2.678-22.261 0-31.104 11.702-31.104 28.587v12.106c0 16.885 8.843 28.598 31.104 28.598 5.173 0 11.306-0.555 20.726-2.656v-16.853zM225.568 60.64h-38.006v-1.397c0-7.872 2.805-9.93 12.096-9.93 8.341 0 13.451 0.394 24.181 2.25v-16.832c-10.346-2.112-15.744-2.678-25.898-2.678-22.262 0-31.114 11.702-31.114 28.587v13.834c0 14.762 6.571 26.87 29.387 26.87s29.365-11.957 29.365-26.87v-13.834zM292.96 60.31c0-16.31-4.683-28.224-32.971-28.224-10.208 0-16.214 0.896-27.488 2.635v93.28l20.726 3.456v-32.64c4.48 1.654 10.283 2.496 15.552 2.496 20.726 0 24.192-9.28 24.192-24.192v-16.81zM359.37 59.957c0-14.080-5.813-27.733-30.166-27.733-24.373 0-30.293 13.642-30.293 27.733v13.589c0 14.080 5.92 27.744 30.293 27.744 24.352 0 30.166-13.654 30.166-27.744v-13.589zM425.771 59.957c0-14.080-5.834-27.733-30.166-27.733-24.373 0-30.315 13.642-30.315 27.733v13.589c0 14.080 5.942 27.744 30.315 27.744 24.331 0 30.166-13.654 30.166-27.744v-13.589zM493.899 32.992h-22.454l-18.998 31.67v-31.669h-20.726v95.019l20.726 3.456v-61.173l18.998 30.070h22.454l-20.747-32.81 20.747-34.56zM395.52 84.043c-7.040 0-9.483-3.84-9.483-8.63v-17.462c0-4.8 2.442-8.651 9.483-8.651 7.019 0 9.526 3.84 9.526 8.651v17.462c0 4.789-2.507 8.63-9.526 8.63zM505.728 44.81c3.498 0 6.272-2.848 6.272-6.4 0-3.594-2.774-6.411-6.315-6.411-3.478 0-6.315 2.816-6.315 6.421 0 3.552 2.837 6.4 6.315 6.4h0.043zM505.685 43.818c-2.816 0-5.11-2.432-5.11-5.408 0-3.040 2.293-5.43 5.142-5.43 2.837-0.022 5.11 2.389 5.11 5.408 0 2.998-2.272 5.43-5.11 5.43h-0.032zM504.502 34.699h-1.12v7.125c0.587 0.086 1.163 0.182 2.005 0.182 1.088 0 1.792-0.224 2.229-0.555 0.416-0.298 0.651-0.789 0.651-1.483 0-0.928-0.63-1.504-1.376-1.728v-0.053c0.63-0.118 1.046-0.661 1.163-1.728 0.192-1.11 0.352-1.536 0.459-1.76h-1.184c-0.171 0.224-0.352 0.885-0.48 1.813-0.171 0.918-0.63 1.259-1.546 1.259h-0.789v-3.072zM504.502 38.646h0.832c0.938 0 1.728 0.33 1.728 1.216 0 0.64-0.459 1.248-1.728 1.248-0.373 0-0.651-0.032-0.832-0.064v-2.4z" />
<glyph unicode="&#xe62e;" d="M0 478.080v-510.080h512v510.080h-512zM372.875 201.803h-90.794v-90.805h-46.368v90.805h-90.805v46.368h90.805v90.805h46.368v-90.805h90.794v-46.368z" />
<glyph unicode="&#xe62f;" d="M200.64 165.418c-9.994 4.192-22.912-0.118-29.077-9.792-6.25-9.707-3.317-21.28 6.602-25.792 10.070-4.598 23.434-0.235 29.674 9.717 6.144 10.070 2.912 21.558-7.2 25.866zM225.269 175.627c-3.829 1.526-8.63-0.32-10.88-4.096-2.186-3.798-0.982-8.106 2.869-9.696 3.904-1.611 8.896 0.245 11.157 4.106 2.144 3.894 0.746 8.256-3.147 9.685zM209.685 242.635c-64.522-6.379-113.451-45.888-109.269-88.245 4.192-42.368 59.904-71.531 124.427-65.163 64.533 6.378 113.451 45.899 109.269 88.278-4.182 42.346-59.894 71.52-124.427 65.13zM266.304 142.72c-13.173-29.792-51.050-45.664-83.19-35.307-31.018 10.016-44.16 40.651-30.571 68.245 13.333 27.050 48.054 42.358 78.763 34.368 31.765-8.202 47.99-38.187 34.998-67.306zM0 480v-512h512v512h-512zM224.63 66.112c-80.875 0-163.542 39.19-163.542 103.648 0 33.696 21.355 72.672 58.123 109.451 49.099 49.077 106.357 71.445 127.893 49.898 9.504-9.493 10.421-25.93 4.32-45.558-3.19-9.888 9.28-4.406 9.28-4.438 39.69 16.618 74.304 17.589 86.966-0.48 6.752-9.643 6.101-23.147-0.118-38.816-2.87-7.21 0.885-8.331 6.378-9.974 22.358-6.933 47.243-23.702 47.243-53.248 0-48.885-70.528-110.486-176.544-110.486zM385.002 312.352v0c0 0 0 0 0 0 12.49-13.824 15.829-32.65 10.486-49.173-2.176-6.762-9.418-10.442-16.171-8.277-6.752 2.186-10.442 9.44-8.267 16.181h-0.010c2.624 8.086 0.981 17.291-5.12 24.054-6.101 6.742-15.094 9.301-23.402 7.541v0.011c-6.923-1.504-13.75 2.944-15.232 9.856-1.493 6.954 2.933 13.781 9.877 15.264 16.981 3.606 35.382-1.642 47.84-15.456 0 0 0 0 0 0zM445.909 246.901c0-0.022 0-0.054 0-0.064-2.538-7.829-10.954-12.118-18.784-9.589-7.861 2.538-12.16 10.944-9.622 18.794v0c7.786 24.106 2.848 51.606-15.328 71.765-18.208 20.16-45.046 27.862-69.834 22.603-8.064-1.728-16 3.435-17.717 11.478-1.728 8.053 3.413 15.989 11.478 17.717h0.010c34.858 7.413 72.618-3.413 98.219-31.798v0c25.6-28.331 32.502-66.986 21.579-100.906z" />
<glyph unicode="&#xe630;" d="M457.632 88.618l-364.928-46.154c-29.12-3.702-55.819 17.014-59.51 46.123l-26.73 211.286c-3.68 29.12 17.035 55.829 46.144 59.498l364.938 46.166c29.12 3.68 55.808-17.035 59.498-46.144l26.741-211.274c3.67-29.12-17.024-55.818-46.154-59.498zM56.256 330.56c-13.248-1.675-22.645-13.803-20.981-27.050l26.73-211.286c1.675-13.226 13.803-22.635 27.040-20.971l364.95 46.166c13.238 1.664 22.635 13.803 20.971 27.050l-26.731 211.274c-1.675 13.248-13.803 22.646-27.050 20.971l-364.928-46.155zM138.105 184.793l230.484 29.156 7.289-57.621-230.484-29.156-7.289 57.621z" />
<glyph unicode="&#xe631;" d="M256 480c-141.387 0-256-114.613-256-256s114.614-256 256-256 256 114.613 256 256-114.613 256-256 256zM147.84 45.216l-7.755 83.914 83.157-46.293-75.403-37.621zM232.149 98.837l-83.157 46.293 112.171 201.504 83.158-46.293-112.171-201.504zM376.63 358.389l-23.402-42.058-83.157 46.282 23.413 42.059c3.765 6.773 12.608 9.109 19.648 5.184l57.558-32.043c7.040-3.904 9.707-12.661 5.942-19.424z" />
<glyph unicode="&#xe632;" d="M317.216 100.8l12.938 188.64h-140.128l12.939-188.64zM256 480c-141.376 0-256-114.613-256-256s114.624-256 256-256c141.387 0 256 114.613 256 256s-114.603 256-256 256zM157.451 370.272h71.691c3.403 13.472 16.79 26.198 32.822 26.198 16.022 0 29.408-12.726 32.81-26.198h64.779v-26.944h-202.101v26.944zM382.026 289.44h-21.877l-14.944-220.075h-170.219l-14.954 220.075h-25.013v31.435h247.018v-31.435z" />
<glyph unicode="&#xe633;" d="M463.094 110.474c-7.339 14.688-18.666 29.92-35.808 41.334-17.12 11.478-39.808 18.752-68.128 18.688h-29.77c0 0 5.611 30.144 10.666 38.858 15.115 26.101 34.389 50.88 34.389 83.413v68.768c-0.010 65.44-53.024 118.442-118.454 118.464-65.418-0.022-118.442-53.024-118.442-118.454v-68.768c0.011-32.544 19.286-57.312 34.4-83.413 5.046-8.704 10.667-38.858 10.667-38.858h-29.77c-28.309 0.064-50.998-7.211-68.128-18.688-25.792-17.226-38.197-42.56-44.234-62.709-6.048-20.288-6.059-36.064-6.069-37.046v-84.064h443.211v84.064c-0.096 1.269 0.075 28.938-14.528 58.411z" />
<glyph unicode="&#xe634;" d="M512 201.462c0 11.498-4.587 21.824-12.779 29.184-5.685 5.024-16.022 11.125-32.789 11.125h-121.418c4.95 27.466 10.219 63.21 10.486 65.206 0.171 1.408 0.256 2.794 0.139 4.214-2.464 36.16-25.173 79.2-26.166 80.981-2.123 4.011-5.546 7.179-9.717 8.982-8.704 3.563-17.195 5.45-25.312 5.45-17.067 0-29.642-8.406-35.243-15.552-2.784-3.68-4.224-8.075-4.16-12.662 0-0.48 1.184-46.528 1.323-60.928-5.974-17.226-55.157-96.288-66.4-106.411-1.845-1.568-4.224-3.382-6.891-5.312-3.136 2.101-6.912 3.328-10.954 3.328h-152.49c-5.43 0-10.71-2.293-14.4-6.389-3.787-4.010-5.6-9.397-5.162-14.837l15.84-201.707c0.779-10.154 9.28-18.134 19.605-18.134h136.619c10.891 0 19.733 8.832 19.733 19.733v8.822c1.109-0.672 2.23-1.408 3.157-2.005 7.84-5.024 18.571-11.936 31.84-11.936h180.32c36.128 0 60.406 27.914 60.406 53.952 0 5.984-1.226 11.563-3.531 16.651 11.616 10.4 18.315 24.618 18.315 38.283 0 5.984-1.184 11.574-3.488 16.661 11.606 10.411 18.293 24.618 18.293 38.368 0 5.899-1.195 11.541-3.51 16.565 11.594 10.4 18.336 24.598 18.336 38.368zM451.616 167.2c43.147 0 28.331-55.019-14.794-55.019 43.125 0 28.298-54.923-14.848-54.923 43.147 0 28.32-54.966-14.816-54.966-22.592 0-115.702 0-180.32 0-13.109 0-25.088 14.038-34.998 15.69v169.856c4.224 2.944 8.042 5.792 10.965 8.277 14.4 12.224 73.28 107.466 73.28 119.36 0 11.904-1.334 63.413-1.334 63.413s6.208 8.032 19.68 8.032c4.928 0 10.774-1.099 17.664-3.968 0 0 21.675-40.726 23.872-73.12 0 0-9.717-66.795-14.998-87.723 0 0 115.894 0 145.451 0 43.136 0.010 28.341-54.912-14.805-54.912z" />
<glyph unicode="&#xe635;" d="M102.987-32c-10.538 0-19.114 7.563-19.114 16.779v136.726l-83.862 0.010 113.93 109.152 113.994-109.162h-83.957v-100.714h90.186l59.040-52.789h-190.219zM511.99 78.293h-83.882v136.746c0 9.248-8.576 16.79-19.115 16.79h-190.186l59.050-52.778h90.154v-100.704l-83.925-0.053 113.984-109.142 113.92 109.142z" />
<glyph unicode="&#xe63e;" d="M290.454 312.746c-41.398 0-75.082-33.685-75.082-75.040 0-41.418 33.685-75.082 75.082-75.082 41.376 0 75.061 33.664 75.061 75.082 0.010 41.355-33.685 75.040-75.062 75.040zM255.872 479.755c-141.312 0-255.872-114.571-255.872-255.882s114.56-255.872 255.872-255.872 255.872 114.56 255.872 255.872-114.56 255.882-255.872 255.882zM290.454 131.456c-26.848 0-52.352 10.058-72.106 28.373l-86.112-55.733-16.928 26.144 83.466 54.016c-9.536 16.288-14.56 34.709-14.56 53.44 0 58.538 47.659 106.208 106.24 106.208 58.56 0 106.229-47.669 106.229-106.208 0-58.57-47.659-106.24-106.23-106.24z" />
<glyph unicode="&#xe63f;" d="M-0.224 53.248l30.837-47.627 156.832 101.504c35.958-33.355 82.442-51.669 131.296-51.669 106.688 0 193.482 86.794 193.482 193.462 0 106.688-86.794 193.462-193.482 193.462s-193.462-86.774-193.462-193.462c0-34.091 9.142-67.606 26.517-97.302l-152.022-98.368zM182.026 248.917c0 75.381 61.334 136.704 136.704 136.704s136.736-61.312 136.736-136.704c0-75.381-61.355-136.715-136.726-136.715s-136.714 61.344-136.714 136.714z" />
<glyph unicode="&#xe640;" d="M510.080 291.37c0 32.714-24.896 59.69-58.805 60.288l-177.269 0.149 45.291 89.046c5.099 10.005 1.11 22.282-8.928 27.382-10.026 5.099-22.293 1.099-27.349-8.928l-53.728-105.547-38.848 103.456c-3.989 10.528-15.69 15.872-26.208 11.915-10.538-3.947-15.882-15.702-11.893-26.23l34.186-91.040-124.874 0.075c-33.109 0-61.654-26.699-61.654-59.798 0-1.088 0-247.595 0-247.595 0-31.498 31.306-57.493 63.264-57.493l387.531-0.214c32.544 0.618 58.87 26.442 58.87 59.147 0 1.877 0.106 5.354-0.043 5.354l0.459 240.032zM331.402 53.334h-251.072c-10.87 0-26.998-1.6-26.998 12.853 0 0 0 202.656 0 203.232 0 11.862 12.224 21.504 23.68 22.912l255.030-0.106c10.912-1.91 19.392-11.19 19.392-22.624 0-0.587 0.406-200.661 0.406-200.661 0-10.688-10.058-15.606-20.438-15.606zM458.666 160h-74.666v128h74.666v-128z" />
<glyph unicode="&#xe641;" d="M463.104 395.744l-210.155-209.803-210.080 209.803h420.235zM511.733 65.685c0-7.978-9.685-13.44-17.642-13.44h-482.166c-7.936 0-11.648 5.462-11.648 13.44v307.050l255.648-255.466 255.798 255.466v-307.050z" />
<glyph unicode="&#xe642;" d="M471.594 327.115l-19.050-14.859-14.858 19.051-12.694-9.91 14.87-19.040-19.040-14.869 19.829-25.397-19.040-14.87-49.558 63.488-128.394-100.245c9.398-28.106 0.746-60.267-23.925-79.52-16.042-12.544-35.744-17.12-54.411-14.474l-74.582-86.645-89.195 114.283 102.421 51.392c2.026 18.646 11.242 36.469 27.211 48.906 24.587 19.221 57.696 19.808 82.645 4.085l217.344 169.674 79.296-101.558-19.050-14.88-19.818 25.387z" />
<glyph unicode="&#xe643;" d="M133.131-24.309v12.128l234.891 234.208-234.891 233.792v11.978l245.749-245.771z" />
<glyph unicode="&#xe644;" d="M378.869-24.309v12.128l-234.891 234.208 234.891 233.792v11.978l-245.749-245.771z" />
<glyph unicode="&#xe645;" d="M7.691 101.131h12.128l234.208 234.891 233.792-234.891h11.978l-245.771 245.749z" />
<glyph unicode="&#xe646;" d="M7.691 346.869h12.128l234.208-234.891 233.792 234.891h11.978l-245.771-245.749z" />
</font>
</defs>
</svg>
